<?xml version="1.0" encoding="utf-8"?>
<!-- Generator: Adobe Illustrator 24.2.1, SVG Export Plug-In . SVG Version: 6.00 Build 0)  -->
<svg version="1.1" id="Capa_1" xmlns="http://www.w3.org/2000/svg" xmlns:xlink="http://www.w3.org/1999/xlink" x="0px" y="0px"
	 viewBox="0 0 479 479" style="enable-background:new 0 0 479 479;" xml:space="preserve">
<style type="text/css">
	.st0{fill:#7CA540;}
	.st1{fill:#88BF40;}
	.st2{fill:#FAAC2B;}
	.st3{fill:#9F1F5A;}
	.st4{fill:#FDE700;}
	.st5{fill:#ECAF4A;}
	.st6{fill:#FFC018;}
	.st7{fill:#8E662B;}
	.st8{fill:#A2783B;}
	.st9{fill:#80582F;}
</style>
<g>
	<path class="st0" d="M432.3,219.5l-8.7,15.5l-7.9,14l-16.4,29.1h-288c-14.9,0-27.8-10.3-31.2-24.8c-3.3-14.5,3.9-29.4,17.3-35.8
		c-1.4-3.6-2.1-7.4-2.2-11.3c0-17.6,14.3-32,32-32c2.9,0,5.9,0.5,8.7,1.4c2.9-13.5,14.2-23.6,27.9-25c-3-4.9-4.6-10.5-4.6-16.3
		c0-17.6,14.3-32,32-32c1.4,0.1,2.8,0.2,4.2,0.4c5.6-10.1,16.2-16.4,27.7-16.4c3.9,0,7.7,0.7,11.3,2.2c5.3-11.1,16.4-18.1,28.7-18.1
		c12.3,0,23.4,7.1,28.7,18.1c3.6-1.4,7.4-2.1,11.3-2.2c11.5,0,22.1,6.3,27.7,16.4c1.4-0.2,2.8-0.3,4.2-0.4c16.9,0,30.8,13.1,31.9,30
		c0.1,0.7,0.1,1.3,0.1,2c0,5.8-1.6,11.4-4.6,16.3c13.7,1.4,25,11.5,27.9,25c2.8-0.9,5.8-1.3,8.7-1.4c17.6,0,32,14.3,32,32
		c0,3.9-0.7,7.7-2.2,11.3C429.9,218,431.1,218.7,432.3,219.5z"/>
	<path class="st1" d="M466.1,105.5c8.6-20.3,5.7-41-6.4-46.1c-9.6-4.1-22.2,2.8-31.3,16c-3.9-6.6-11.1-10.6-18.8-10.4
		c-13.1,1.6-21.6,20.7-18.9,42.6c2.6,21.9,15.5,38.3,28.6,36.7c5.9-1.1,10.8-4.9,13.5-10.2C444.3,135.1,458.4,123.5,466.1,105.5z"/>
	<path class="st2" d="M457.8,161.2c0,3.3-0.3,6.5-1,9.7c-1.1,5.2-2.9,10.2-5.5,14.8l-0.1,0.2l-18.9,33.6l-8.7,15.5l-7.9,14
		l-16.4,29.1l-50.6,90.2c-6.7,11.9-21.2,16.8-33.8,11.5c-12.5-5.3-19.1-19.2-15.2-32.3l20.8-69.4l27.7-92.5l4.6-15.3l7-23.4
		c1.5-5.2,3.9-10.1,7.1-14.5c12.6-17.8,35.3-25.4,56-18.8C443.7,120.1,457.8,139.4,457.8,161.2z"/>
	<path class="st3" d="M311,357.9c0,44.1-35.8,79.9-79.9,79.9c-44.1,0-79.9-35.8-79.9-79.9c0-44.1,35.8-79.9,79.9-79.9
		C275.3,278.1,311,313.8,311,357.9z"/>
	<path class="st4" d="M313.8,280.7c24.2-26.2,27.6-65.5,8.4-95.5c4.7-3.9,6.8-10.1,5.4-16c-1.4-5.9-6.1-10.5-12-11.9
		c-5.9-1.3-12.1,0.8-16,5.5c-0.4,0.5-0.7,1-1,1.5c-29.8-15.7-69.4-7.6-94.5,21.5c-25.1,29-27.5,69.4-7.7,96.7
		c-0.5,0.4-0.9,0.8-1.3,1.2c-5.7,6.7-4.9,16.7,1.7,22.4c6.6,5.7,16.6,5.1,22.4-1.5c0.5-0.6,0.9-1.1,1.2-1.8
		C253,317.4,291.3,308.4,313.8,280.7z"/>
	<path class="st3" d="M46.6,250.5c2.4,44,41.4,101.7,85.5,99.3c44-2.4,76.5-64,74-108.1c-2.4-44.1-39.7-69.8-83.7-67.4
		C78.4,176.8,44.2,206.5,46.6,250.5z"/>
	<path class="st1" d="M76,28c-23-10.4-50-1.2-62,20.9C2.1,71.1,9.4,98.8,30.7,112.2c-0.6,17.1,8,33.3,22.5,42.3s32.8,9.6,47.9,1.5
		c3.2-1.7,6.3-3.8,9-6.3l21.9-1.2c3,2.1,6.2,3.9,9.7,5.2c15.9,6.4,34,3.8,47.4-6.8c13.5-10.6,20.2-27.6,17.7-44.5
		c19.6-15.7,23.7-43.9,9.4-64.6c-14.3-20.7-42.1-26.8-63.7-14.1L76,28z"/>
	<path class="st0" d="M68,57.3c-1.1-20.1,10.4-38.8,29-46.8c18.5-7.9,40.1-3.4,53.8,11.3c13.8,14.7,16.9,36.5,7.8,54.5
		c12.8,19.5,9.7,45.3-7.3,61.2c-17,15.9-42.9,17.4-61.6,3.4c-18.6-14-24.5-39.3-14-60.1C71.1,73.9,68.4,65.8,68,57.3z"/>
	<path class="st5" d="M151.3,246.1h32c22.1,0,39.9,17.9,39.9,39.9c0,22.1-17.9,39.9-39.9,39.9h-32c-22.1,0-39.9-17.9-39.9-39.9
		C111.3,264,129.2,246.1,151.3,246.1z"/>
	<path class="st5" d="M287.1,350h32c22.1,0,39.9,17.9,39.9,39.9c0,22.1-17.9,39.9-39.9,39.9h-32c-22.1,0-39.9-17.9-39.9-39.9
		C247.1,367.8,265,350,287.1,350z"/>
	<path class="st6" d="M382.9,278.1c0,35.3-28.6,63.9-63.9,63.9c-35.3,0-63.9-28.6-63.9-63.9c0-35.3,28.6-63.9,63.9-63.9
		C354.3,214.2,382.9,242.8,382.9,278.1z"/>
	<path class="st4" d="M223.2,381.9c0,35.3-28.6,63.9-63.9,63.9c-35.3,0-63.9-28.6-63.9-63.9c0-35.3,28.6-63.9,63.9-63.9
		C194.5,318,223.2,346.6,223.2,381.9z"/>
	<path class="st7" d="M39.4,310h399.4v63.9H39.4V310z"/>
	<path class="st7" d="M39.4,405.9h399.4v63.9H39.4V405.9z"/>
	<path class="st8" d="M143.3,469.8V310c0-17.6-14.3-32-32-32c-17.7,0-32,14.3-32,32v159.8"/>
	<path class="st8" d="M335,469.8V310c0-17.6,14.3-32,32-32c17.6,0,32,14.3,32,32v159.8"/>
	<g>
		<path class="st9" d="M143.3,310h16v63.9h-16V310z"/>
		<path class="st9" d="M143.3,405.9h16v63.9h-16V405.9z"/>
		<path class="st9" d="M398.9,310h16v63.9h-16V310z"/>
		<path class="st9" d="M398.9,405.9h16v63.9h-16V405.9z"/>
	</g>
	<path d="M103.3,429.8h16v16h-16V429.8z"/>
	<path d="M103.3,334h16v16h-16V334z"/>
	<path d="M359,429.8h16v16h-16V429.8z"/>
	<path d="M359,334h16v16h-16V334z"/>
	<path d="M302.1,249.8c2.2,2,3.1,5,2.4,7.9c-0.7,2.9-3,5.1-5.9,5.8c-2.9,0.7-5.9-0.3-7.9-2.5l-11.2,11.4c4.6,4.6,10.9,7.2,17.4,7.4
		c6.3-0.1,12.2-2.8,16.5-7.4c4.7-4.4,7.3-10.5,7.3-16.9c0-6.4-2.6-12.5-7.3-16.9L302.1,249.8z"/>
	<path d="M462.8,52.1c-10.9-4.7-24-0.3-34.9,11.2c-5.3-4.7-12.3-6.9-19.3-6.2c-17.7,2.2-29.1,24.8-25.9,51.3c0,0.2,0.1,0.3,0.1,0.5
		c-4.3,2.1-8.3,4.7-12,7.7c-6.8-13.6-20.7-22.2-35.9-22.2c-9.1-12.2-24.4-18.1-39.3-15.2c-7.3-10.3-19.1-16.6-31.8-16.7
		c-12.7-0.2-24.6,5.7-32.3,15.8c6.8-27.1-7.5-55-33.4-65.3c-14.2-5.7-30.1-5.3-44,1C143,3.4,128-2,112.7-1.1
		C97.5-0.3,83.3,6.8,73.4,18.4c-14.5-4.8-30.4-3.4-43.9,3.8c-16.9,9.1-28,26.1-29.4,45.3c-1.4,19.1,7.1,37.6,22.6,49
		c0.8,20.8,13.2,39.4,32.1,48.2c18.9,8.8,41.1,6.2,57.6-6.6l1.2,0.1l0.5,8.9C67.6,173,36.3,207.2,38.7,251
		c1.4,17.9,6.7,35.4,15.4,51.1H39.4c-4.4,0-8,3.6-8,8v63.9c0,4.4,3.6,8,8,8h32v16h-32c-4.4,0-8,3.6-8,8v63.9c0,4.4,3.6,8,8,8h399.4
		c4.4,0,8-3.6,8-8v-63.9c0-4.4-3.6-8-8-8h-32v-16h32c4.4,0,8-3.6,8-8V310c0-4.4-3.6-8-8-8h-32.8c-0.9-4-2.4-7.9-4.5-11.5l56.7-100.9
		c10.2-18,10-40.2-0.7-58c6.8-6.5,12.2-14.3,15.9-23c6.3-13.2,7.3-28.4,2.7-42.3C473.8,60,469,54.8,462.8,52.1z M389.8,123.1
		c13-6.1,28.3-5.1,40.4,2.6s19.5,21.1,19.5,35.5c0,2.2-0.2,4.4-0.6,6.5l-15.5-6.6l-6.2,14.7l16.3,6.9l-27.6,49.1L383.6,218
		l-6.2,14.7l31,13.2l-17.5,31.2c-0.3-28-16.8-53.2-42.4-64.5l7.1-23.8l26.9,11.5l6.3-14.7l-28.5-12.2l7.3-24.2
		C370.8,137.6,379,128.2,389.8,123.1z M159.2,270.1v-16h16v32h16v-30.8c14.1,3.6,23.9,16.3,24,30.8c0,5.6-1.5,11.1-4.4,16h-60.3
		c-3-14.4-13.7-25.9-27.7-30.1c4.1-8.3,11.6-14.4,20.5-16.7v14.8H159.2z M317.1,179.1c-3.1,2.7-3.7,7.3-1.3,10.6
		c3.5,5.1,6.2,10.8,8,16.7c-24.1-1.6-47.4,9-62,28.2c-14.6,19.3-18.5,44.6-10.4,67.4h-22.9c6.7-18.8,1-39.8-14.3-52.6
		c0.1-2.7,0.2-5.5,0.1-8.1c-0.6-13.7-4.9-27-12.3-38.5c2.4-4.2,5.2-8.1,8.3-11.8c22.1-25.6,57.7-33.8,84.7-19.6
		c3.3,1.8,7.4,0.9,9.8-2c0.4-0.4,0.7-0.9,1-1.4c1.4-1.6,3.3-2.6,5.4-2.7c2.1-0.2,4.2,0.6,5.8,2c3.3,2.8,3.7,7.7,1,11.1L317.1,179.1z
		 M327,397.9H151.3v-16H327V397.9z M327,365.9H151.3V318H327V365.9z M327.8,302h-59.1c-9.5-19.9-6.4-43.6,7.9-60.3
		c14.3-16.8,37.2-23.5,58.4-17.2c21.1,6.3,36.6,24.5,39.4,46.4C352.9,266.6,332.1,280.5,327.8,302z M111.3,286c13.2,0,24,10.7,24,24
		v151.8H87.3V310C87.3,296.8,98.1,286,111.3,286z M151.3,413.9H327v47.9H151.3V413.9z M343,310c0-13.2,10.7-24,24-24
		c13.2,0,24,10.7,24,24v151.8H343V310z M241.6,92c3.9-8.3,12.3-13.6,21.5-13.6c9.2,0,17.6,5.3,21.5,13.6c1.8,3.7,6.2,5.5,10.1,4
		c11-4.3,23.5,0.3,29.2,10.6c1.6,2.8,4.6,4.4,7.8,4.1l1.3-0.2c0.7-0.1,1.3-0.2,2-0.2c11.7,0,21.7,8.6,23.5,20.2
		c-2.7,4.4-4.9,9.1-6.4,14l-15.3,51c-1.3-3.3-2.9-6.6-4.6-9.7c6.2-10,4.2-23-4.7-30.7c-8.7-7.6-21.7-7.9-30.7-0.7
		c-35.1-13.4-74.7-2.9-98.7,26c-2.5,2.9-4.9,6-7.1,9.3c-16.6-15.4-38.5-23.8-61.1-23.5l-0.5-8.9l1.1-0.2c2.6,1.6,5.3,3,8.1,4.1
		c17.8,7.2,38,4.7,53.5-6.5c15.5-11.2,24.2-29.7,23-48.8c3.6-3.4,6.7-7.2,9.3-11.3c2.4,0.1,4.8,0.6,7.1,1.5
		C235.4,97.4,239.8,95.7,241.6,92z M192.1,27.7c13.2,5.3,22.6,17.3,24.6,31.4c2,14.1-3.7,28.2-14.9,37.1c-2.2,1.8-3.4,4.6-3,7.4
		c1.9,13-2.7,26.1-12.3,35c-9.6,8.9-23.1,12.5-35.8,9.5c23.2-16.3,30.4-47.4,16.8-72.3c6.6-15.9,5.4-33.9-3.2-48.8
		C173.4,24,183.2,24.2,192.1,27.7L192.1,27.7z M113.6,14.8c14.3-0.8,27.9,6.1,35.7,18c7.8,12,8.6,27.2,2.1,39.9
		c-1.3,2.6-1.1,5.6,0.4,8c7.1,10.7,8.5,24.2,3.9,36.2c-4.6,12-14.7,21-27.2,24.3l-3.7-67.6l20.4-22.8l-11.9-10.7l-17.3,19.2
		L96.8,42.1L86.1,54l22.8,20.4l1.4,25.3l-10.9-9.7l-10.7,11.9l22.8,20.4l1.1,19.8c-12.7-1.8-23.8-9.7-29.7-21.1
		c-5.9-11.4-6-25-0.1-36.4c1.3-2.6,1.1-5.6-0.4-8c-7.8-11.9-8.7-27.1-2.3-39.9S99.4,15.6,113.6,14.8L113.6,14.8z M43.3,132.6
		c-3.3-6.2-4.9-13.1-4.6-20.2c0.1-2.8-1.3-5.5-3.8-7C22.8,97.9,15.5,84.5,16,70.2S24.5,43,37.1,36.3c8.4-4.5,18.2-5.8,27.5-3.7
		c-3.5,7.9-5,16.6-4.6,25.2c0.5,8.3,2.8,16.3,6.7,23.6c-10.8,26.2-0.2,56.3,24.7,70C72.9,157.8,52.6,149.8,43.3,132.6L43.3,132.6z
		 M114.9,183.1l0.9,15.6l16-0.9l-0.9-15.6c37.5,1,64.4,24.1,67.1,58.3c-4.8-1.6-9.8-2.4-14.8-2.4h-32c-20.5,0.1-38.6,13.1-45.2,32.5
		c-16.6,2.2-30.1,14.6-33.7,31c-10-15.5-16.1-33.1-17.7-51.5C52.7,215,77.1,188.3,114.9,183.1L114.9,183.1z M47.4,365.9V318h24v47.9
		H47.4z M47.4,413.9h24v47.9h-24V413.9z M430.9,413.9v47.9h-24v-47.9H430.9z M430.9,365.9h-24V318h24V365.9z M458.7,102.4
		c-2.6,6.3-6.4,12-11.2,16.8c-13.1-12.6-31.3-18.2-49.2-15.2c-1.3-16.9,5-30.2,12.2-31.1c3.6-0.5,7.7,2.2,11.4,7.2
		c1.5,2.1,4,3.3,6.5,3.2c2.6,0,5-1.3,6.4-3.4c6.9-10,16-15.5,21.6-13.1c2.3,1.1,4,3.2,4.8,5.6C464.2,82.3,463.3,93,458.7,102.4z"/>
</g>
</svg>
